<?xml version="1.0" encoding="utf-8" ?>
<svg baseProfile="tiny" height="162" version="1.2" width="390" xmlns="http://www.w3.org/2000/svg" xmlns:ev="http://www.w3.org/2001/xml-events" xmlns:xlink="http://www.w3.org/1999/xlink"><defs /><path d="M 336,105 L 332,108 L 332,114 L 342,119 L 340,121 L 336,118 L 331,119 L 334,124 L 343,125 L 346,123 L 347,117 L 344,114 L 336,111 L 338,109 L 342,111 L 347,111 L 346,107 L 342,105 Z" fill="black" /><path d="M 301,106 L 302,125 L 306,125 L 307,115 L 310,120 L 314,120 L 317,116 L 318,124 L 323,125 L 323,105 L 319,105 L 313,114 L 305,105 Z" fill="black" /><path d="M 280,105 L 279,124 L 294,124 L 293,121 L 287,121 L 285,119 L 286,117 L 291,117 L 292,113 L 286,113 L 284,111 L 288,109 L 293,109 L 293,106 Z" fill="black" /><path d="M 255,105 L 254,109 L 259,110 L 261,112 L 261,125 L 265,125 L 266,111 L 269,109 L 271,110 L 272,105 Z" fill="black" /><path d="M 237,105 L 233,107 L 232,112 L 235,116 L 243,119 L 240,121 L 233,118 L 232,120 L 235,124 L 243,125 L 248,121 L 248,117 L 243,113 L 244,111 L 247,111 L 247,108 L 242,105 Z" fill="black" /><path d="M 207,105 L 214,118 L 214,124 L 218,125 L 219,118 L 226,105 L 221,105 L 217,111 L 212,105 Z" fill="black" /><path d="M 190,105 L 185,109 L 185,112 L 187,115 L 194,117 L 196,119 L 192,121 L 186,118 L 185,120 L 188,124 L 196,125 L 201,121 L 201,117 L 196,113 L 200,112 L 201,110 L 196,105 Z" fill="black" /><path d="M 164,105 L 158,109 L 157,119 L 164,125 L 170,125 L 177,120 L 178,113 L 176,108 L 173,106 Z" fill="black" /><path d="M 134,105 L 133,124 L 137,125 L 138,120 L 140,119 L 145,125 L 149,125 L 150,124 L 146,118 L 149,115 L 149,108 L 145,105 Z" fill="black" /><path d="M 121,105 L 109,106 L 110,125 L 113,125 L 116,119 L 121,119 L 124,117 L 125,109 Z" fill="black" /><path d="M 178,50 L 171,85 L 188,86 L 199,82 L 205,76 L 207,71 L 208,63 L 205,55 L 198,50 Z" fill="black" /><path d="M 158,50 L 146,50 L 140,53 L 134,59 L 130,72 L 132,79 L 138,84 L 144,86 L 153,85 L 161,81 L 166,75 L 167,72 L 160,71 L 153,77 L 146,78 L 143,77 L 139,72 L 139,67 L 141,63 L 147,58 L 153,57 L 159,60 L 160,63 L 169,63 L 165,54 Z" fill="black" /><path d="M 128,50 L 119,51 L 112,85 L 113,86 L 120,86 L 122,83 Z" fill="black" /><path d="M 100,50 L 85,51 L 80,54 L 75,60 L 72,74 L 74,79 L 78,83 L 82,85 L 91,86 L 98,84 L 105,79 L 109,72 L 108,71 L 102,71 L 92,78 L 87,78 L 81,73 L 82,64 L 89,58 L 95,57 L 98,58 L 102,63 L 111,63 L 107,54 Z" fill="black" /><path d="M 82,10 L 71,13 L 53,23 L 53,25 L 44,34 L 35,54 L 34,74 L 37,88 L 43,100 L 60,117 L 79,125 L 100,126 L 100,101 L 84,100 L 72,94 L 62,82 L 59,72 L 59,62 L 64,50 L 71,42 L 85,35 L 100,34 L 100,15 L 98,14 L 100,13 L 100,10 Z" fill="black" /></svg>